M48
; DRILL file {KiCad 6.0.11-2627ca5db0~126~ubuntu22.04.1} date Fri 12 May 2023 07:19:19 PM PDT
; FORMAT={-:-/ absolute / inch / decimal}
; #@! TF.CreationDate,2023-05-12T19:19:19-07:00
; #@! TF.GenerationSoftware,Kicad,Pcbnew,6.0.11-2627ca5db0~126~ubuntu22.04.1
; #@! TF.FileFunction,Plated,1,2,PTH
FMAT,2
INCH
; #@! TA.AperFunction,Plated,PTH,ComponentDrill
T1C0.0374
; #@! TA.AperFunction,Plated,PTH,ComponentDrill
T2C0.0394
%
G90
G05
T1
X3.231Y-4.4212
X3.231Y-4.7212
X3.2316Y-2.0222
X3.2316Y-2.3222
X3.2316Y-2.6222
X3.2316Y-2.9222
X3.2316Y-3.2222
X3.2316Y-3.5222
X3.2316Y-3.8222
X3.2316Y-4.1222
X3.3295Y-4.4212
X3.3295Y-4.7212
X3.33Y-2.0222
X3.33Y-2.3222
X3.33Y-2.6222
X3.33Y-2.9222
X3.33Y-3.2222
X3.33Y-3.5222
X3.33Y-3.8222
X3.33Y-4.1222
X3.4279Y-4.4212
X3.4279Y-4.7212
X3.4285Y-2.0222
X3.4285Y-2.3222
X3.4285Y-2.6222
X3.4285Y-2.9222
X3.4285Y-3.2222
X3.4285Y-3.5222
X3.4285Y-3.8222
X3.4285Y-4.1222
X3.9459Y-4.6677
X3.9459Y-4.7661
X3.9459Y-4.8645
X4.2459Y-4.6677
X4.2459Y-4.7661
X4.2459Y-4.8645
X4.5459Y-4.6677
X4.5459Y-4.7661
X4.5459Y-4.8645
X4.8459Y-4.6677
X4.8459Y-4.7661
X4.8459Y-4.8645
X5.4855Y-4.6677
X5.4855Y-4.7661
X5.4855Y-4.8645
X5.7855Y-4.6677
X5.7855Y-4.7661
X5.7855Y-4.8645
X6.0855Y-4.6677
X6.0855Y-4.7661
X6.0855Y-4.8645
X6.3855Y-4.6677
X6.3855Y-4.7661
X6.3855Y-4.8645
X7.1431Y-1.9772
X7.1431Y-2.2772
X7.1431Y-2.5772
X7.1431Y-2.8772
X7.1431Y-3.1772
X7.1431Y-3.4772
X7.1431Y-3.7772
X7.1431Y-4.0772
X7.1431Y-4.3772
X7.1431Y-4.6772
X7.2415Y-1.9772
X7.2415Y-2.2772
X7.2415Y-2.5772
X7.2415Y-2.8772
X7.2415Y-3.1772
X7.2415Y-3.4772
X7.2415Y-3.7772
X7.2415Y-4.0772
X7.2415Y-4.3772
X7.2415Y-4.6772
X7.3399Y-1.9772
X7.3399Y-2.2772
X7.3399Y-2.5772
X7.3399Y-2.8772
X7.3399Y-3.1772
X7.3399Y-3.4772
X7.3399Y-3.7772
X7.3399Y-4.0772
X7.3399Y-4.3772
X7.3399Y-4.6772
T2
X2.6405Y-4.4212
X2.6405Y-4.7212
X2.6411Y-2.0222
X2.6411Y-2.3222
X2.6411Y-2.6222
X2.6411Y-2.9222
X2.6411Y-3.2222
X2.6411Y-3.5222
X2.6411Y-3.8222
X2.6411Y-4.1222
X2.7405Y-4.4212
X2.7405Y-4.7212
X2.7411Y-2.0222
X2.7411Y-2.3222
X2.7411Y-2.6222
X2.7411Y-2.9222
X2.7411Y-3.2222
X2.7411Y-3.5222
X2.7411Y-3.8222
X2.7411Y-4.1222
X2.8405Y-4.4212
X2.8405Y-4.7212
X2.8411Y-2.0222
X2.8411Y-2.3222
X2.8411Y-2.6222
X2.8411Y-2.9222
X2.8411Y-3.2222
X2.8411Y-3.5222
X2.8411Y-3.8222
X2.8411Y-4.1222
X3.2845Y-5.1582
X3.2845Y-5.2582
X3.5915Y-5.1378
X3.5915Y-5.2362
X4.1855Y-5.0582
X4.1855Y-5.1582
X4.1855Y-5.2582
X4.4855Y-5.0582
X4.4855Y-5.1582
X4.4855Y-5.2582
X4.7855Y-5.0582
X4.7855Y-5.1582
X4.7855Y-5.2582
X5.0855Y-5.0582
X5.0855Y-5.1582
X5.0855Y-5.2582
X5.4855Y-5.0582
X5.4855Y-5.1582
X5.4855Y-5.2582
X5.7855Y-5.0582
X5.7855Y-5.1582
X5.7855Y-5.2582
X6.0855Y-5.0582
X6.0855Y-5.1582
X6.0855Y-5.2582
X6.3855Y-5.0582
X6.3855Y-5.1582
X6.3855Y-5.2582
X7.7305Y-1.9772
X7.7305Y-2.2772
X7.7305Y-2.5772
X7.7305Y-2.8772
X7.7305Y-3.1772
X7.7305Y-3.4772
X7.7305Y-3.7772
X7.7305Y-4.0772
X7.7305Y-4.3772
X7.7305Y-4.6772
X7.8305Y-1.9772
X7.8305Y-2.2772
X7.8305Y-2.5772
X7.8305Y-2.8772
X7.8305Y-3.1772
X7.8305Y-3.4772
X7.8305Y-3.7772
X7.8305Y-4.0772
X7.8305Y-4.3772
X7.8305Y-4.6772
X7.9305Y-1.9772
X7.9305Y-2.2772
X7.9305Y-2.5772
X7.9305Y-2.8772
X7.9305Y-3.1772
X7.9305Y-3.4772
X7.9305Y-3.7772
X7.9305Y-4.0772
X7.9305Y-4.3772
X7.9305Y-4.6772
T0
M30
