%TF.GenerationSoftware,KiCad,Pcbnew,6.0.11-2627ca5db0~126~ubuntu22.04.1*%
%TF.CreationDate,2023-05-12T19:19:22-07:00*%
%TF.ProjectId,Roborio board,526f626f-7269-46f2-9062-6f6172642e6b,rev?*%
%TF.SameCoordinates,Original*%
%TF.FileFunction,Profile,NP*%
%FSLAX46Y46*%
G04 Gerber Fmt 4.6, Leading zero omitted, Abs format (unit mm)*
G04 Created by KiCad (PCBNEW 6.0.11-2627ca5db0~126~ubuntu22.04.1) date 2023-05-12 19:19:22*
%MOMM*%
%LPD*%
G01*
G04 APERTURE LIST*
%TA.AperFunction,Profile*%
%ADD10C,0.050000*%
%TD*%
G04 APERTURE END LIST*
D10*
X95000000Y-40750000D02*
X94970000Y-105750000D01*
X189500000Y-40750000D02*
X189500000Y-43750000D01*
X57250000Y-87750000D02*
X65250000Y-87750000D01*
X65250000Y-87750000D02*
X65250000Y-121750000D01*
X65250000Y-121750000D02*
X57250000Y-121750000D01*
X57250000Y-121750000D02*
X57250000Y-87750000D01*
X203250000Y-86750000D02*
X211250000Y-86750000D01*
X211250000Y-86750000D02*
X211250000Y-120750000D01*
X211250000Y-120750000D02*
X203250000Y-120750000D01*
X203250000Y-120750000D02*
X203250000Y-86750000D01*
X175250000Y-137250000D02*
X193750000Y-137250000D01*
X193750000Y-137250000D02*
X193750000Y-128750000D01*
X193750000Y-128750000D02*
X175250000Y-128750000D01*
X175250000Y-128750000D02*
X175250000Y-137250000D01*
X173750000Y-105750000D02*
X94970000Y-105750000D01*
X189500000Y-40750000D02*
X173750000Y-40750000D01*
X203250000Y-48750000D02*
X211250000Y-48750000D01*
X211250000Y-48750000D02*
X211250000Y-82750000D01*
X211250000Y-82750000D02*
X203250000Y-82750000D01*
X203250000Y-82750000D02*
X203250000Y-48750000D01*
X95000000Y-40750000D02*
X77500000Y-40750000D01*
X137250000Y-145750000D02*
X164250000Y-145750000D01*
X164250000Y-145750000D02*
X164250000Y-137250000D01*
X164250000Y-137250000D02*
X137250000Y-137250000D01*
X137250000Y-137250000D02*
X137250000Y-145750000D01*
X212750000Y-147500000D02*
X212750000Y-43750000D01*
X212750000Y-43750000D02*
X189500000Y-43750000D01*
X77500000Y-44500000D02*
X55500000Y-44500000D01*
X55500000Y-44500000D02*
X55500000Y-147500000D01*
X55500000Y-147500000D02*
X212750000Y-147500000D01*
X77500000Y-44500000D02*
X77500000Y-40750000D01*
X57250000Y-49750000D02*
X65250000Y-49750000D01*
X65250000Y-49750000D02*
X65250000Y-83750000D01*
X65250000Y-83750000D02*
X57250000Y-83750000D01*
X57250000Y-83750000D02*
X57250000Y-49750000D01*
X173750000Y-105750000D02*
X173750000Y-40750000D01*
X88250000Y-145750000D02*
X130250000Y-145750000D01*
X130250000Y-145750000D02*
X130250000Y-137250000D01*
X130250000Y-137250000D02*
X88250000Y-137250000D01*
X88250000Y-137250000D02*
X88250000Y-145750000D01*
M02*
