%TF.GenerationSoftware,KiCad,Pcbnew,6.0.11-2627ca5db0~126~ubuntu22.04.1*%
%TF.CreationDate,2023-05-12T19:19:22-07:00*%
%TF.ProjectId,Roborio board,526f626f-7269-46f2-9062-6f6172642e6b,rev?*%
%TF.SameCoordinates,Original*%
%TF.FileFunction,Soldermask,Bot*%
%TF.FilePolarity,Negative*%
%FSLAX46Y46*%
G04 Gerber Fmt 4.6, Leading zero omitted, Abs format (unit mm)*
G04 Created by KiCad (PCBNEW 6.0.11-2627ca5db0~126~ubuntu22.04.1) date 2023-05-12 19:19:22*
%MOMM*%
%LPD*%
G01*
G04 APERTURE LIST*
G04 Aperture macros list*
%AMRoundRect*
0 Rectangle with rounded corners*
0 $1 Rounding radius*
0 $2 $3 $4 $5 $6 $7 $8 $9 X,Y pos of 4 corners*
0 Add a 4 corners polygon primitive as box body*
4,1,4,$2,$3,$4,$5,$6,$7,$8,$9,$2,$3,0*
0 Add four circle primitives for the rounded corners*
1,1,$1+$1,$2,$3*
1,1,$1+$1,$4,$5*
1,1,$1+$1,$6,$7*
1,1,$1+$1,$8,$9*
0 Add four rect primitives between the rounded corners*
20,1,$1+$1,$2,$3,$4,$5,0*
20,1,$1+$1,$4,$5,$6,$7,0*
20,1,$1+$1,$6,$7,$8,$9,0*
20,1,$1+$1,$8,$9,$2,$3,0*%
G04 Aperture macros list end*
%ADD10RoundRect,0.250000X0.600000X0.725000X-0.600000X0.725000X-0.600000X-0.725000X0.600000X-0.725000X0*%
%ADD11O,1.700000X1.950000*%
%ADD12RoundRect,0.250000X-0.600000X-0.725000X0.600000X-0.725000X0.600000X0.725000X-0.600000X0.725000X0*%
%ADD13RoundRect,0.250000X0.725000X-0.600000X0.725000X0.600000X-0.725000X0.600000X-0.725000X-0.600000X0*%
%ADD14O,1.950000X1.700000*%
%ADD15C,2.200000*%
%ADD16RoundRect,0.250000X0.750000X-0.600000X0.750000X0.600000X-0.750000X0.600000X-0.750000X-0.600000X0*%
%ADD17O,2.000000X1.700000*%
%ADD18R,1.700000X1.700000*%
%ADD19O,1.700000X1.700000*%
G04 APERTURE END LIST*
D10*
%TO.C,J43*%
X186434100Y-50221800D03*
D11*
X183934100Y-50221800D03*
X181434100Y-50221800D03*
%TD*%
D12*
%TO.C,J17*%
X82083100Y-104704400D03*
D11*
X84583100Y-104704400D03*
X87083100Y-104704400D03*
%TD*%
D13*
%TO.C,J37*%
X162191100Y-123559200D03*
D14*
X162191100Y-121059200D03*
X162191100Y-118559200D03*
%TD*%
D10*
%TO.C,J47*%
X186434100Y-80701800D03*
D11*
X183934100Y-80701800D03*
X181434100Y-80701800D03*
%TD*%
D10*
%TO.C,J53*%
X186434100Y-88321800D03*
D11*
X183934100Y-88321800D03*
X181434100Y-88321800D03*
%TD*%
D13*
%TO.C,J26*%
X100225000Y-123559200D03*
D14*
X100225000Y-121059200D03*
X100225000Y-118559200D03*
%TD*%
D13*
%TO.C,J28*%
X115465000Y-123559200D03*
D14*
X115465000Y-121059200D03*
X115465000Y-118559200D03*
%TD*%
D12*
%TO.C,J11*%
X82083100Y-58984400D03*
D11*
X84583100Y-58984400D03*
X87083100Y-58984400D03*
%TD*%
D15*
%TO.C,REF\u002A\u002A*%
X210250000Y-46250000D03*
%TD*%
D10*
%TO.C,J45*%
X186434100Y-65461800D03*
D11*
X183934100Y-65461800D03*
X181434100Y-65461800D03*
%TD*%
D12*
%TO.C,J16*%
X82083100Y-97084400D03*
D11*
X84583100Y-97084400D03*
X87083100Y-97084400D03*
%TD*%
D13*
%TO.C,J34*%
X139331100Y-123559200D03*
D14*
X139331100Y-121059200D03*
X139331100Y-118559200D03*
%TD*%
D15*
%TO.C,REF\u002A\u002A*%
X58000000Y-145000000D03*
X58000000Y-145000000D03*
X58000000Y-145000000D03*
X58000000Y-145000000D03*
%TD*%
D10*
%TO.C,J57*%
X186434100Y-118801800D03*
D11*
X183934100Y-118801800D03*
X181434100Y-118801800D03*
%TD*%
D15*
%TO.C,REF\u002A\u002A*%
X58250000Y-47000000D03*
%TD*%
D12*
%TO.C,J18*%
X82068100Y-112299400D03*
D11*
X84568100Y-112299400D03*
X87068100Y-112299400D03*
%TD*%
D13*
%TO.C,J27*%
X107845000Y-123559200D03*
D14*
X107845000Y-121059200D03*
X107845000Y-118559200D03*
%TD*%
D12*
%TO.C,J12*%
X82083100Y-66604400D03*
D11*
X84583100Y-66604400D03*
X87083100Y-66604400D03*
%TD*%
D12*
%TO.C,J19*%
X82068100Y-119919400D03*
D11*
X84568100Y-119919400D03*
X87068100Y-119919400D03*
%TD*%
D16*
%TO.C,J21*%
X91225000Y-133000000D03*
D17*
X91225000Y-130500000D03*
%TD*%
D12*
%TO.C,J15*%
X82083100Y-89464400D03*
D11*
X84583100Y-89464400D03*
X87083100Y-89464400D03*
%TD*%
D15*
%TO.C,REF\u002A\u002A*%
X210250000Y-145000000D03*
X210250000Y-145000000D03*
X210250000Y-145000000D03*
X210250000Y-145000000D03*
%TD*%
D13*
%TO.C,J35*%
X146951100Y-123559200D03*
D14*
X146951100Y-121059200D03*
X146951100Y-118559200D03*
%TD*%
D12*
%TO.C,J13*%
X82083100Y-74224400D03*
D11*
X84583100Y-74224400D03*
X87083100Y-74224400D03*
%TD*%
D10*
%TO.C,J55*%
X186434100Y-103561800D03*
D11*
X183934100Y-103561800D03*
X181434100Y-103561800D03*
%TD*%
D10*
%TO.C,J46*%
X186434100Y-73081800D03*
D11*
X183934100Y-73081800D03*
X181434100Y-73081800D03*
%TD*%
D12*
%TO.C,J10*%
X82083100Y-51364400D03*
D11*
X84583100Y-51364400D03*
X87083100Y-51364400D03*
%TD*%
D12*
%TO.C,J14*%
X82083100Y-81844400D03*
D11*
X84583100Y-81844400D03*
X87083100Y-81844400D03*
%TD*%
D13*
%TO.C,J29*%
X123085000Y-123559200D03*
D14*
X123085000Y-121059200D03*
X123085000Y-118559200D03*
%TD*%
D10*
%TO.C,J54*%
X186434100Y-95941800D03*
D11*
X183934100Y-95941800D03*
X181434100Y-95941800D03*
%TD*%
D13*
%TO.C,J36*%
X154571100Y-123559200D03*
D14*
X154571100Y-121059200D03*
X154571100Y-118559200D03*
%TD*%
D10*
%TO.C,J44*%
X186434100Y-57841800D03*
D11*
X183934100Y-57841800D03*
X181434100Y-57841800D03*
%TD*%
D10*
%TO.C,J56*%
X186434100Y-111181800D03*
D11*
X183934100Y-111181800D03*
X181434100Y-111181800D03*
%TD*%
D18*
%TO.C,J7*%
X67083100Y-104704400D03*
D19*
X69623100Y-104704400D03*
X72163100Y-104704400D03*
%TD*%
D18*
%TO.C,J25*%
X129171100Y-133559200D03*
D19*
X129171100Y-131019200D03*
X129171100Y-128479200D03*
%TD*%
D18*
%TO.C,J8*%
X67068100Y-112299400D03*
D19*
X69608100Y-112299400D03*
X72148100Y-112299400D03*
%TD*%
D18*
%TO.C,J50*%
X201434100Y-103561800D03*
D19*
X198894100Y-103561800D03*
X196354100Y-103561800D03*
%TD*%
D18*
%TO.C,J32*%
X154571100Y-133559200D03*
D19*
X154571100Y-131019200D03*
X154571100Y-128479200D03*
%TD*%
D18*
%TO.C,J24*%
X121551100Y-133559200D03*
D19*
X121551100Y-131019200D03*
X121551100Y-128479200D03*
%TD*%
D18*
%TO.C,J6*%
X67083100Y-97084400D03*
D19*
X69623100Y-97084400D03*
X72163100Y-97084400D03*
%TD*%
D18*
%TO.C,J52*%
X201434100Y-118801800D03*
D19*
X198894100Y-118801800D03*
X196354100Y-118801800D03*
%TD*%
D18*
%TO.C,J33*%
X162191100Y-133559200D03*
D19*
X162191100Y-131019200D03*
X162191100Y-128479200D03*
%TD*%
D18*
%TO.C,J49*%
X201434100Y-95941800D03*
D19*
X198894100Y-95941800D03*
X196354100Y-95941800D03*
%TD*%
D18*
%TO.C,J41*%
X201434100Y-73081800D03*
D19*
X198894100Y-73081800D03*
X196354100Y-73081800D03*
%TD*%
D18*
%TO.C,J0*%
X67083100Y-51364400D03*
D19*
X69623100Y-51364400D03*
X72163100Y-51364400D03*
%TD*%
D18*
%TO.C,J1*%
X67083100Y-58984400D03*
D19*
X69623100Y-58984400D03*
X72163100Y-58984400D03*
%TD*%
D18*
%TO.C,J20*%
X83425700Y-133559200D03*
D19*
X83425700Y-131019200D03*
%TD*%
D18*
%TO.C,J31*%
X146951100Y-133559200D03*
D19*
X146951100Y-131019200D03*
X146951100Y-128479200D03*
%TD*%
D18*
%TO.C,J42*%
X201434100Y-80701800D03*
D19*
X198894100Y-80701800D03*
X196354100Y-80701800D03*
%TD*%
D18*
%TO.C,J23*%
X113931100Y-133559200D03*
D19*
X113931100Y-131019200D03*
X113931100Y-128479200D03*
%TD*%
D18*
%TO.C,J4*%
X67083100Y-81844400D03*
D19*
X69623100Y-81844400D03*
X72163100Y-81844400D03*
%TD*%
D18*
%TO.C,J38*%
X201434100Y-50221800D03*
D19*
X198894100Y-50221800D03*
X196354100Y-50221800D03*
%TD*%
D18*
%TO.C,J9*%
X67068100Y-119919400D03*
D19*
X69608100Y-119919400D03*
X72148100Y-119919400D03*
%TD*%
D18*
%TO.C,J39*%
X201434100Y-57841800D03*
D19*
X198894100Y-57841800D03*
X196354100Y-57841800D03*
%TD*%
D18*
%TO.C,J30*%
X139331100Y-133559200D03*
D19*
X139331100Y-131019200D03*
X139331100Y-128479200D03*
%TD*%
D18*
%TO.C,J3*%
X67083100Y-74224400D03*
D19*
X69623100Y-74224400D03*
X72163100Y-74224400D03*
%TD*%
D18*
%TO.C,J48*%
X201434100Y-88321800D03*
D19*
X198894100Y-88321800D03*
X196354100Y-88321800D03*
%TD*%
D18*
%TO.C,J40*%
X201434100Y-65461800D03*
D19*
X198894100Y-65461800D03*
X196354100Y-65461800D03*
%TD*%
D18*
%TO.C,J2*%
X67083100Y-66604400D03*
D19*
X69623100Y-66604400D03*
X72163100Y-66604400D03*
%TD*%
D18*
%TO.C,J51*%
X201434100Y-111181800D03*
D19*
X198894100Y-111181800D03*
X196354100Y-111181800D03*
%TD*%
D18*
%TO.C,J22*%
X106311100Y-133559200D03*
D19*
X106311100Y-131019200D03*
X106311100Y-128479200D03*
%TD*%
D18*
%TO.C,J5*%
X67083100Y-89464400D03*
D19*
X69623100Y-89464400D03*
X72163100Y-89464400D03*
%TD*%
M02*
